:SAMPLES-PER-SECOND 30
:FULLY-SPECIFIED
:DEGREES
689
root  12.7801 40.7712 8.55864 143.574 86.1659 143.787
RightUpLeg  -4.182 -11.7627 -9.83744
RightLeg  8.10516 -11.0954 2.48558
RightFoot  0.543993 -0.0153188 0.171717
RightToes  0.000481921 0.542163 -0.142578
Spine  10.6439 -0.701541 2.47523
Spine1  1.93734 -0.16927 -1.76023
HEad  5.95315 -2.01027 2.34282
LeftShoulder1  2.66175 -9.43421 -13.6523
LeftArm  -26.7507 -28.0857 -15.7599
LeftForeArm  14.0472 -65.478 -26.4776
LeftHand  -0.25398 0.0180481 5.50724
RightShoulder  1.18357 2.52992 12.6363
RightArm  -41.9394 9.86451 22.4536
RightForeArm  38.1913 75.2465 67.2492
RightHand  -4.37741 12.1282 -28.8323
LeftUpLeg  -1.12183 5.56741 3.97175
LeftLeg  -0.221126 14.8474 -4.56915
LeftFoot  3.74909 0.239352 -1.98648
LeftToes  1.06247e-005 4.65869e-005 -8.65511e-006
690
root  12.5506 40.7559 8.50619 138.215 86.4526 138.641
RightUpLeg  -4.55801 -12.0241 -9.91556
RightLeg  8.35919 -10.4042 2.41639
RightFoot  0.805711 -0.024261 0.28203
RightToes  0.000481921 0.542163 -0.142578
Spine  10.4101 -0.743927 3.26475
Spine1  2.79233 0.0954085 -2.93167
HEad  7.41385 -1.51781 2.32024
LeftShoulder1  2.11813 -11.1678 -6.84961
LeftArm  -26.864 -38.9291 -5.32839
LeftForeArm  1.12435 -27.0147 -5.65359
LeftHand  -0.25398 0.0180481 5.50724
RightShoulder  0.815846 2.60054 5.7917
RightArm  -47.7221 22.8502 13.0289
RightForeArm  -13.0288 38.9979 7.56097
RightHand  -3.28317 11.2366 -23.0176
LeftUpLeg  -1.25027 5.56878 3.84045
LeftLeg  -0.0884045 15.2967 -4.59681
LeftFoot  3.87807 0.232835 -1.91935
LeftToes  1.06247e-005 4.65869e-005 -8.65511e-006
691
root  12.3935 40.7625 8.4688 124.983 86.8918 125.352
RightUpLeg  -5.09831 -11.8982 -9.94902
RightLeg  8.32588 -9.72642 2.32669
RightFoot  1.15922 -0.0299244 0.352257
RightToes  0.000481921 0.542163 -0.142578
Spine  10.9082 -1.01197 3.82012
Spine1  2.71118 0.139481 -4.22669
HEad  7.62307 -0.143988 2.44613
LeftShoulder1  1.19604 -12.198 1.00329
LeftArm  -28.4062 -41.9756 -0.988446
LeftForeArm  8.34189 0.484651 -5.23044
LeftHand  -0.25398 0.0180481 5.50724
RightShoulder  0.427015 3.56564 -2.68039
RightArm  -45.307 28.9695 10.1716
RightForeArm  -6.4384 5.57048 -0.00829948
RightHand  -2.21047 10.563 -16.5043
LeftUpLeg  -1.2498 5.54114 3.66492
LeftLeg  -0.451358 16.2045 -4.82273
LeftFoot  4.10856 0.250964 -2.03375
LeftToes  1.06247e-005 4.65869e-005 -8.65511e-006
692
root  12.42 40.7951 8.47747 108.544 87.1711 108.082
RightUpLeg  -5.88617 -11.4044 -9.8603
RightLeg  7.69366 -9.49195 2.49429
RightFoot  1.51067 -0.0277295 0.336638
RightToes  0.000481921 0.542163 -0.142578
Spine  11.7517 -1.13422 3.57983
Spine1  0.832638 -0.0185829 -4.36783
HEad  6.41698 1.28438 2.54339
LeftShoulder1  0.416511 -10.4453 6.20731
LeftArm  -30.1423 -37.5632 -4.57231
LeftForeArm  8.09132 0.329922 -3.21629
LeftHand  -0.25398 0.0180481 5.50724
RightShoulder  0.0761287 3.49354 -8.47925
RightArm  -39.5218 25.7322 14.6584
RightForeArm  -5.72405 3.77459 0.821484
RightHand  -1.98834 9.26743 -16.1394
LeftUpLeg  -1.47081 5.40756 3.51931
LeftLeg  -1.52056 17.2649 -5.21381
LeftFoot  4.46082 0.285142 -2.25012
LeftToes  1.06247e-005 4.65869e-005 -8.65511e-006
693
root  12.6498 40.8289 8.50164 97.354 87.4296 95.58
RightUpLeg  -6.46121 -11.0078 -9.61647
RightLeg  6.49805 -9.49371 3.06093
RightFoot  1.77333 -0.0204678 0.284712
RightToes  0.000481921 0.542163 -0.142578
Spine  11.9995 -1.09278 2.44034
Spine1  -1.45693 -0.480083 -2.51813
HEad  4.87902 2.78244 2.02505
LeftShoulder1  0.31519 -6.50582 5.86702
LeftArm  -33.0471 -27.3311 -10.3064
LeftForeArm  10.5434 -26.9669 -4.94923
LeftHand  -0.25398 0.0180481 5.50724
RightShoulder  0.0676432 0.954618 -7.437
RightArm  -40.767 18.1716 20.1194
RightForeArm  -7.11054 30.5003 7.40077
RightHand  -2.12956 7.69542 -19.1678
LeftUpLeg  -2.02155 5.35777 3.632
LeftLeg  -2.41015 17.9231 -5.4761
LeftFoot  4.52513 0.310694 -2.42734
LeftToes  1.06247e-005 4.65869e-005 -8.65511e-006
694
root  12.9862 40.8494 8.50864 85.6363 87.8089 82.8982
RightUpLeg  -6.3964 -10.8238 -9.23024
RightLeg  5.22006 -9.28624 3.62074
RightFoot  1.93171 -0.0166574 0.277551
RightToes  0.000481921 0.542163 -0.142578
Spine  11.524 -1.13644 0.974619
Spine1  -2.48324 -1.13217 0.206979
HEad  4.20879 4.45639 1.04703
LeftShoulder1  0.5008 -3.90306 2.00542
LeftArm  -32.7621 -12.1418 -14.3532
LeftForeArm  34.3627 -64.9878 -27.5397
LeftHand  -0.25398 0.0180481 5.50724
RightShoulder  0.125141 -1.73212 -1.86246
RightArm  -37.47 10.0366 24.6234
RightForeArm  4.70955 65.85 30.3289
RightHand  -1.9286 5.80698 -20.1464
LeftUpLeg  -2.42179 5.52674 4.01519
LeftLeg  -2.45603 18.2108 -5.43944
LeftFoot  4.11084 0.321196 -2.55099
LeftToes  1.06247e-005 4.65869e-005 -8.65511e-006
695
root  13.3215 40.8635 8.51835 63.6335 87.8419 60.629
RightUpLeg  -5.97061 -10.4851 -8.83139
RightLeg  4.52191 -8.81978 3.67448
RightFoot  1.89369 -0.0131349 0.270638
RightToes  0.000481921 0.542163 -0.142578
Spine  11.1896 -1.30072 -0.114134
Spine1  -2.63556 -1.6703 1.95591
HEad  4.62351 5.82201 0.390069
LeftShoulder1  0.745478 -3.29153 -2.76999
LeftArm  -30.758 5.89247 -18.2467
LeftForeArm  148.463 -75.2993 -139.634
LeftHand  -0.25398 0.0180481 5.50724
RightShoulder  0.170179 -2.1161 3.75731
RightArm  -34.3021 -1.02424 30.4949
RightForeArm  105.706 75.8198 129.051
RightHand  -1.09725 2.33252 -16.3719
LeftUpLeg  -2.16837 5.73793 4.37082
LeftLeg  -2.17721 18.7249 -5.31408
LeftFoot  3.55689 0.326543 -2.6575
LeftToes  1.06247e-005 4.65869e-005 -8.65511e-006
696
root  13.6203 40.8679 8.55578 44.4555 87.2985 41.5546
RightUpLeg  -5.68761 -10.1087 -8.55927
RightLeg  4.68799 -8.23743 3.342
RightFoot  1.51973 -0.00298219 0.146515
RightToes  0.000481921 0.542163 -0.142578
Spine  11.529 -1.51994 -1.14039
Spine1  -3.17589 -2.12838 3.00991
HEad  5.55726 6.91462 0.156854
LeftShoulder1  0.874216 -1.81529 -9.26453
LeftArm  -27.8753 22.3669 -24.677
LeftForeArm  176.507 -50.5381 -169.562
LeftHand  -0.25398 0.0180481 5.50724
RightShoulder  0.362539 -1.37587 9.6905
RightArm  -31.0545 -14.8993 39.472
RightForeArm  153.412 55.5874 165.138
RightHand  -0.37881 -1.05494 -10.1295
LeftUpLeg  -1.51909 5.86239 4.54204
LeftLeg  -1.97305 19.4679 -5.24788
LeftFoot  3.06497 0.328563 -2.74672
LeftToes  1.06247e-005 4.65869e-005 -8.65511e-006
697
root  13.8974 40.8491 8.58979 36.0956 86.8466 33.3674
RightUpLeg  -5.51876 -10.0003 -8.44021
RightLeg  5.37353 -7.72954 3.16041
RightFoot  0.893506 0.00869331 -0.0258811
RightToes  0.000481921 0.542163 -0.142578
Spine  11.5262 -1.86577 -3.05976
Spine1  -3.33897 -2.96923 5.18426
HEad  6.4499 8.55423 -0.299739
LeftShoulder1  0.425688 1.73647 -17.749
LeftArm  -23.8255 33.9102 -35.1553
LeftForeArm  179.45 -38.2156 -172.599
LeftHand  -0.25398 0.0180481 5.50724
RightShoulder  0.525938 -1.2483 16.8262
RightArm  -26.2128 -25.291 48.7728
RightForeArm  169.514 43.4393 170.516
RightHand  -0.153345 -1.92845 -4.99582
LeftUpLeg  -1.04027 6.05447 4.73141
LeftLeg  -1.38858 19.8215 -5.09488
LeftFoot  2.3907 0.328415 -2.84863
LeftToes  1.06247e-005 4.65869e-005 -8.65511e-006
698
root  14.1543 40.8183 8.57634 28.4464 86.5178 26.0568
RightUpLeg  -5.16194 -10.0639 -8.37928
RightLeg  6.07946 -7.13519 3.17293
RightFoot  0.313308 0.0040215 -0.0176508
RightToes  0.000481921 0.542163 -0.142578
Spine  9.94212 -2.25302 -5.36646
Spine1  -1.49859 -4.0368 7.89012
HEad  7.33726 10.4042 -0.958783
LeftShoulder1  -0.390785 4.81403 -25.651
LeftArm  -23.7643 40.3075 -47.2789
LeftForeArm  -174.789 -36.7743 -173.136
LeftHand  -0.25398 0.0180481 5.50724
RightShoulder  0.523429 -1.68133 22.36
RightArm  -20.0376 -28.8642 53.6001
RightForeArm  173.519 41.6387 171.102
RightHand  -0.11987 -1.68465 -3.3998
LeftUpLeg  -0.558925 6.38612 5.06133
LeftLeg  -0.461738 19.8773 -4.84638
LeftFoot  1.51823 0.331627 -3.0253
LeftToes  1.06247e-005 4.65869e-005 -8.65511e-006
